<svg width="40" height="40" viewBox="0 0 40 40" xmlns="http://www.w3.org/2000/svg">
  <rect width="40" height="40" fill="black" rx="20"/>
  
  <!-- Blue cross in center -->
  <path d="M18 8 L22 8 L22 14 L28 14 L28 18 L22 18 L22 32 L18 32 L18 18 L12 18 L12 14 L18 14 Z" fill="#0066CC" rx="2"/>
  
  <!-- Green L-shapes in quadrants -->
  <!-- Top-left -->
  <path d="M8 8 L16 8 L16 12 L12 12 L12 16 L8 16 Z" fill="#00AA44" rx="1"/>
  
  <!-- Top-right -->
  <path d="M24 8 L32 8 L32 16 L28 16 L28 12 L24 12 Z" fill="#00AA44" rx="1"/>
  
  <!-- Bottom-left -->
  <path d="M8 24 L12 24 L12 28 L16 28 L16 32 L8 32 Z" fill="#00AA44" rx="1"/>
  
  <!-- Bottom-right -->
  <path d="M24 24 L32 24 L32 32 L28 32 L28 28 L24 28 Z" fill="#00AA44" rx="1"/>
</svg>
